<svg xmlns="http://www.w3.org/2000/svg" width="38.342" height="35.31" viewBox="0 0 38.342 35.31">
  <g id="Group_465" data-name="Group 465" transform="translate(-436.186 -3051.73)">
    <path id="Path_260" data-name="Path 260" d="M437.065,3064.254c-.039-8.533,8.987-14.16,16.161-10.307a10.435,10.435,0,0,1,2.093,1.543c.45.415.708.462,1.186.049a10.785,10.785,0,0,1,6.833-2.671,10,10,0,0,1,10.214,11.381,15.032,15.032,0,0,1-3.726,7.762,113.007,113.007,0,0,1-12.451,12.275c-.542.476-1.065.977-1.627,1.428a1.453,1.453,0,0,1-2.045-.019,100.968,100.968,0,0,1-12.322-12.143,45.51,45.51,0,0,1-2.879-4.139A9.127,9.127,0,0,1,437.065,3064.254Z" fill="none" stroke="#a6a6a6" stroke-miterlimit="10" stroke-width="1.75"/>
  </g>
</svg>
