<svg xmlns="http://www.w3.org/2000/svg" width="39.674" height="35.258" viewBox="0 0 39.674 35.258">
  <g id="Group_462" data-name="Group 462" transform="translate(-635.045 -1739.775)">
    <g id="Group_458" data-name="Group 458">
      <path id="Path_255" data-name="Path 255" d="M648.417,1759.386v7.736a1.113,1.113,0,0,0,2.226,0v-7.736A1.113,1.113,0,0,0,648.417,1759.386Z" fill="#fff" fill-rule="evenodd"/>
    </g>
    <g id="Group_459" data-name="Group 459">
      <path id="Path_256" data-name="Path 256" d="M653.769,1757.858v9.88a1.114,1.114,0,0,0,2.227,0v-9.88A1.114,1.114,0,0,0,653.769,1757.858Z" fill="#fff" fill-rule="evenodd"/>
    </g>
    <g id="Group_460" data-name="Group 460">
      <path id="Path_257" data-name="Path 257" d="M659.122,1759.386v7.736a1.113,1.113,0,0,0,2.226,0v-7.736A1.113,1.113,0,0,0,659.122,1759.386Z" fill="#fff" fill-rule="evenodd"/>
    </g>
    <g id="Group_461" data-name="Group 461">
      <path id="Path_258" data-name="Path 258" d="M673.621,1750.316H662.779l-5.275-9.962c-.689-1.3-2.612-.179-1.923,1.122l4.681,8.84H649.5l4.681-8.84c.689-1.3-1.234-2.424-1.923-1.122l-5.276,9.962H636.144a1.113,1.113,0,0,0,0,2.226h1.367l2.414,16.893c.414,2.9,1.276,5.6,4.965,5.6h19.985c3.32,0,4.5-2.324,4.9-5.147l2.478-17.344h1.367A1.113,1.113,0,0,0,673.621,1750.316Zm-6.058,19.492c-.226,1.586-.737,3-2.689,3H644.89c-2.279,0-2.521-1.831-2.763-3.518l-2.392-16.747h6.071l-.783,1.478h-.757a1.113,1.113,0,0,0,0,2.227h3.351a1.114,1.114,0,0,0,.13-2.219l-.2-.023.774-1.463h13.117l.774,1.463-.2.023a1.114,1.114,0,0,0,.129,2.219H665.5a1.113,1.113,0,0,0,0-2.227h-.758l-.782-1.478h6.071Z" fill="#fff" fill-rule="evenodd"/>
    </g>
  </g>
</svg>
