<svg xmlns="http://www.w3.org/2000/svg" width="17.351" height="17.957" viewBox="0 0 17.351 17.957">
  <g id="Group_329" data-name="Group 329" transform="translate(-246.496 -6963.107)">
    <path id="Path_196" data-name="Path 196" d="M260.825,6963.519a.729.729,0,0,0-.755-.412h-9.8a.73.73,0,0,0-.756.412l-2.837,4.88a1.232,1.232,0,0,0-.185.666v1.6a2.557,2.557,0,0,0,.564,1.6l.014,6.55a2.281,2.281,0,0,0,2.315,2.244h11.565a2.281,2.281,0,0,0,2.315-2.244l.014-6.55a2.557,2.557,0,0,0,.564-1.6v-1.5a1.226,1.226,0,0,0-.2-.8Zm1.337,15.3a1.186,1.186,0,0,1-1.208,1.122h-6.178v-5.36a.654.654,0,0,0-.652-.652h-2.839a.655.655,0,0,0-.653.652v5.36h-1.243a1.186,1.186,0,0,1-1.208-1.122c0-3.041,0,.056,0-5.74a2.565,2.565,0,0,0,2.923-.843,2.576,2.576,0,0,0,4.069,0,2.575,2.575,0,0,0,4.068,0,2.565,2.565,0,0,0,2.923.843C262.161,6978.876,262.162,6975.779,262.162,6978.82Zm-2.383-8.153-.023-1.777-.773-3.169c-.226-.93-1.17-.447-1.058,0l.789,3.148-.013,1.8a1.5,1.5,0,0,1-2.991,0l-.009-4.977a.53.53,0,0,0-1.059,0l-.009,4.977a1.5,1.5,0,0,1-2.991,0l.014-1.79.789-3.149c.112-.447-.832-.929-1.058,0l-.773,3.17-.05,1.769a1.5,1.5,0,0,1-2.991,0l.009-1.738,2.673-4.7h9.833l2.615,4.489.067,1.949A1.5,1.5,0,0,1,259.779,6970.667Z" fill="#ff7b80" fill-rule="evenodd"/>
    <rect id="Rectangle_297" data-name="Rectangle 297" width="3.157" height="3.157" rx="0.526" transform="translate(257.001 6974.353)" fill="#ff7b80"/>
  </g>
</svg>
