<svg xmlns="http://www.w3.org/2000/svg" width="29.621" height="27.349" viewBox="0 0 29.621 27.349">
  <g id="Group_274" data-name="Group 274" transform="translate(-1442.556 -2741.928)">
    <g id="Group_273" data-name="Group 273">
      <path id="Path_147" data-name="Path 147" d="M1443.559,2751.725c-.029-6.441,6.784-10.688,12.2-7.78a7.857,7.857,0,0,1,1.579,1.165c.34.313.535.348.9.037a8.142,8.142,0,0,1,5.159-2.016,7.55,7.55,0,0,1,7.709,8.591,11.343,11.343,0,0,1-2.812,5.859,85.3,85.3,0,0,1-9.4,9.266c-.409.359-.8.737-1.228,1.077a1.1,1.1,0,0,1-1.544-.014,76.191,76.191,0,0,1-9.3-9.166,34.514,34.514,0,0,1-2.173-3.124A6.9,6.9,0,0,1,1443.559,2751.725Z" fill="none" stroke="#4d4d4d" stroke-miterlimit="10" stroke-width="2"/>
    </g>
  </g>
</svg>
