<svg xmlns="http://www.w3.org/2000/svg" width="27.612" height="25.223" viewBox="0 0 27.612 25.223">
  <g id="Group_457" data-name="Group 457" transform="translate(-630.556 -2738.802)">
    <path id="Path_254" data-name="Path 254" d="M630.559,2747.515c-.029-6.441,6.784-10.689,12.2-7.78a7.863,7.863,0,0,1,1.579,1.165c.34.313.535.348.895.036a8.153,8.153,0,0,1,5.159-2.016,7.551,7.551,0,0,1,7.709,8.591,11.344,11.344,0,0,1-2.812,5.86,85.4,85.4,0,0,1-9.4,9.265c-.409.36-.8.738-1.228,1.078a1.1,1.1,0,0,1-1.544-.014,76.257,76.257,0,0,1-9.3-9.166,34.511,34.511,0,0,1-2.173-3.125A6.893,6.893,0,0,1,630.559,2747.515Z" fill="#ff7b80"/>
  </g>
</svg>
