<svg xmlns="http://www.w3.org/2000/svg" width="35.614" height="32.746" viewBox="0 0 35.614 32.746">
  <g id="Group_464" data-name="Group 464" transform="translate(-568.151 -1741.031)">
    <g id="Group_463" data-name="Group 463">
      <path id="Path_259" data-name="Path 259" d="M585.385,1773.777a2.633,2.633,0,0,1-1.745-.7,92.7,92.7,0,0,1-11.3-11.147,42.63,42.63,0,0,1-2.688-3.86,9.581,9.581,0,0,1-1.5-5.358,11.6,11.6,0,0,1,5.676-10.052,10.84,10.84,0,0,1,10.8-.364,10.086,10.086,0,0,1,1.875,1.331,11.017,11.017,0,0,1,6.642-2.456,10.147,10.147,0,0,1,7.912,3.329,10.416,10.416,0,0,1,2.619,8.385,14.743,14.743,0,0,1-3.653,7.666,103.473,103.473,0,0,1-11.407,11.251l-.462.413c-.346.313-.691.624-1.054.915A2.734,2.734,0,0,1,585.385,1773.777Zm-5.787-30.243a8.7,8.7,0,0,0-4.48,1.271,9.117,9.117,0,0,0-4.464,7.919v.043a7.06,7.06,0,0,0,1.106,3.962,40.634,40.634,0,0,0,2.525,3.633,90.772,90.772,0,0,0,11.007,10.839.411.411,0,0,0,.115.08c-.011-.007.046-.032.13-.1.323-.26.632-.54.94-.819l.489-.437a101.376,101.376,0,0,0,11.137-10.974,12.21,12.21,0,0,0,3.094-6.389,7.924,7.924,0,0,0-1.988-6.378,7.707,7.707,0,0,0-5.973-2.514,8.559,8.559,0,0,0-5.416,2.114,1.863,1.863,0,0,1-2.738-.071,7.728,7.728,0,0,0-5.483-2.18Z" fill="#fff"/>
    </g>
  </g>
</svg>
