<svg xmlns="http://www.w3.org/2000/svg" width="23.919" height="24.782" viewBox="0 0 23.919 24.782">
  <path id="Path_18" data-name="Path 18" d="M1724.414,1138.69a4.13,4.13,0,1,0-4.13-4.13A4.13,4.13,0,0,0,1724.414,1138.69Zm0-7.08a2.95,2.95,0,1,1-2.95,2.95A2.95,2.95,0,0,1,1724.414,1131.61Zm-11.073,4.639a1.769,1.769,0,0,0-.65,2.416v0l2.3,3.992a1.775,1.775,0,0,0,2.419.647l1.959-1.131a.646.646,0,0,1,.91.525v2.481a1.772,1.772,0,0,0,1.77,1.77h4.72a1.772,1.772,0,0,0,1.77-1.77V1142.7a.587.587,0,0,1,.324-.5.58.58,0,0,1,.586-.026l1.96,1.131a1.771,1.771,0,0,0,2.417-.648l2.3-3.991a1.769,1.769,0,0,0-.646-2.417h0l-1.911-1.1a.671.671,0,0,1-.332-.595.663.663,0,0,1,.332-.575l1.911-1.1a1.77,1.77,0,0,0,.65-2.416v0l-2.3-3.991a1.773,1.773,0,0,0-2.418-.648l-1.959,1.131a.588.588,0,0,1-.6-.033.579.579,0,0,1-.312-.492v-2.481a1.772,1.772,0,0,0-1.77-1.77h-4.72a1.772,1.772,0,0,0-1.77,1.77v2.481a.645.645,0,0,1-.705.58.634.634,0,0,1-.2-.055l-1.96-1.131a1.773,1.773,0,0,0-2.418.648l-2.3,3.991a1.768,1.768,0,0,0,.646,2.417h0l1.933,1.116a.641.641,0,0,1,.291.581.63.63,0,0,1-.291.565Zm2.522-3.284-1.933-1.116a.589.589,0,0,1-.216-.805h0l2.3-3.991a.589.589,0,0,1,.8-.218l0,0,1.959,1.132a1.822,1.822,0,0,0,2.68-1.548v-2.481a.591.591,0,0,1,.59-.59h4.72a.591.591,0,0,1,.59.59v2.481a1.822,1.822,0,0,0,2.68,1.548l1.958-1.132a.592.592,0,0,1,.807.216l2.305,3.992a.589.589,0,0,1-.216.805h0l-1.912,1.1a1.862,1.862,0,0,0,0,3.214l1.912,1.1h0a.59.59,0,0,1,.216.805h0l-2.3,3.99a.588.588,0,0,1-.8.219l0,0-1.959-1.132a1.821,1.821,0,0,0-2.68,1.548v2.481a.591.591,0,0,1-.59.59h-4.72a.591.591,0,0,1-.59-.59V1142.7a1.748,1.748,0,0,0-.914-1.52,1.823,1.823,0,0,0-.919-.254,1.7,1.7,0,0,0-.847.226l-1.959,1.132a.593.593,0,0,1-.807-.216l-2.3-3.992a.589.589,0,0,1,.216-.805h0l1.933-1.116a1.884,1.884,0,0,0,0-3.19Z" transform="translate(-1712.454 -1122.169)" fill="#ff7b80"/>
</svg>
