<svg xmlns="http://www.w3.org/2000/svg" width="43.727" height="35.023" viewBox="0 0 43.727 35.023">
  <path id="Path_263" data-name="Path 263" d="M548.489,3084.96c-4.375,0-5.2-3.014-5.83-6.954L537.836,3052h-5.418a1.031,1.031,0,0,1,0-2.063h6.308c.694,0,.972.233,1.061.89l2.094,10.636h32.428a.823.823,0,0,1,.667.216c.189.243.185.772-.015,1.571l-3.915,15.672c-.791,3.24-1.474,6.038-5.715,6.038Zm-3.829-7.184c.033.2.065.411.1.621.284,1.9.673,4.5,3.732,4.5H565.33c2.816,0,3.292-2.153,3.673-3.884.054-.243.107-.486.167-.724l.316-1.271H554.154a1.031,1.031,0,0,1,0-2.062H570l1.124-4.5H550.41a1.031,1.031,0,0,1,0-2.063h21.234l1.217-4.872H542.284Z" transform="translate(-531.387 -3049.937)" fill="#a6a6a6" fill-rule="evenodd"/>
</svg>
