<svg xmlns="http://www.w3.org/2000/svg" xmlns:xlink="http://www.w3.org/1999/xlink" width="25.172" height="23.075" viewBox="0 0 25.172 23.075">
  <defs>
    <linearGradient id="linear-gradient" y1="0.5" x2="1" y2="0.5" gradientUnits="objectBoundingBox">
      <stop offset="0" stop-color="#ff5c63"/>
      <stop offset="0.375" stop-color="#ff5f66"/>
      <stop offset="0.705" stop-color="#ff6a70"/>
      <stop offset="1" stop-color="#ff7b80"/>
    </linearGradient>
  </defs>
  <path id="Path_16" data-name="Path 16" d="M1733.343,577.685h-5.383a1.327,1.327,0,0,1-1.379-1.259v-7.211a.188.188,0,0,0-.2-.18h-3.939a.189.189,0,0,0-.2.18v7.211a1.325,1.325,0,0,1-1.378,1.259h-5.379a1.326,1.326,0,0,1-1.378-1.259v-11.38l-1.293,1.184a.62.62,0,0,1-.4.146.611.611,0,0,1-.42-.159.508.508,0,0,1-.046-.716c.01-.011.021-.023.032-.033l2.3-2.108,9.162-8.379a1.469,1.469,0,0,1,1.949,0l9.148,8.385,2.3,2.1a.508.508,0,0,1,.019.718l-.034.033a.613.613,0,0,1-.419.158.622.622,0,0,1-.4-.146l-1.288-1.178v11.378a1.22,1.22,0,0,1-.4.892A1.437,1.437,0,0,1,1733.343,577.685Zm-10.9-9.736h3.938a1.326,1.326,0,0,1,1.379,1.259v7.218a.187.187,0,0,0,.2.18h5.384a.188.188,0,0,0,.2-.18V563.973l-8.984-8.226a.209.209,0,0,0-.277,0l-8.979,8.222v12.457a.188.188,0,0,0,.2.18h5.378a.187.187,0,0,0,.2-.18v-7.211a1.325,1.325,0,0,1,1.378-1.264Z" transform="translate(-1711.828 -554.611)" fill="url(#linear-gradient)"/>
</svg>
