<svg xmlns="http://www.w3.org/2000/svg" width="41.234" height="37.798" viewBox="0 0 41.234 37.798">
  <path id="Path_262" data-name="Path 262" d="M177.128,3088.252h-8.817a2.172,2.172,0,0,1-2.258-2.061v-11.812a.309.309,0,0,0-.321-.3h-6.451a.31.31,0,0,0-.322.3v11.812a2.17,2.17,0,0,1-2.257,2.061h-8.811a2.171,2.171,0,0,1-2.257-2.061v-18.642l-2.119,1.94a1.017,1.017,0,0,1-.659.239,1.006,1.006,0,0,1-.688-.26.831.831,0,0,1-.076-1.173.686.686,0,0,1,.052-.055l3.77-3.453,15.007-13.725a2.407,2.407,0,0,1,3.194,0L179.1,3064.8l3.761,3.436a.832.832,0,0,1,.031,1.176c-.018.018-.036.036-.055.053a1.036,1.036,0,0,1-1.347.02l-2.11-1.929v18.638a1.988,1.988,0,0,1-.662,1.46A2.345,2.345,0,0,1,177.128,3088.252ZM159.279,3072.3h6.451a2.171,2.171,0,0,1,2.258,2.062v11.824a.309.309,0,0,0,.321.3h8.819a.31.31,0,0,0,.322-.3v-20.4l-14.716-13.475a.343.343,0,0,0-.455,0l-14.707,13.468v20.406a.309.309,0,0,0,.321.3H156.7a.309.309,0,0,0,.321-.3v-11.812a2.171,2.171,0,0,1,2.258-2.072Z" transform="translate(-141.885 -3050.456)" fill="#ff7b80"/>
</svg>
