<svg xmlns="http://www.w3.org/2000/svg" width="26.716" height="26.152" viewBox="0 0 26.716 26.152">
  <path id="Path_25" data-name="Path 25" d="M1725.273,669.659l3.323-3.071a1.266,1.266,0,0,1,2.122,1.022l-.329,4.512a1.266,1.266,0,0,0,1.071,1.344l4.473.683a1.266,1.266,0,0,1,.524,2.3L1732.724,679a1.266,1.266,0,0,0-.383,1.675l2.255,3.923a1.266,1.266,0,0,1-1.469,1.841l-4.326-1.325a1.266,1.266,0,0,0-1.548.746l-1.662,4.208a1.266,1.266,0,0,1-2.355,0l-1.661-4.208a1.266,1.266,0,0,0-1.548-.746l-4.327,1.325a1.266,1.266,0,0,1-1.468-1.841l2.254-3.923A1.265,1.265,0,0,0,1716.1,679l-3.733-2.557a1.266,1.266,0,0,1,.524-2.3l4.472-.683a1.267,1.267,0,0,0,1.072-1.344l-.329-4.512a1.266,1.266,0,0,1,2.122-1.022l3.323,3.071A1.266,1.266,0,0,0,1725.273,669.659Z" transform="translate(-1711.056 -665.469)" fill="#fff" stroke="#ff7b80" stroke-linecap="round" stroke-miterlimit="10" stroke-width="1.5"/>
</svg>
