<svg xmlns="http://www.w3.org/2000/svg" width="21.168" height="26.931" viewBox="0 0 21.168 26.931">
  <g id="ZZfpV1" transform="translate(-637 -6955.22)">
    <g id="Group_348" data-name="Group 348">
      <path id="Path_209" data-name="Path 209" d="M647.591,6961.516q4.4,0,8.792,0c.731,0,.781.051.785.763,0,.341-.009.681,0,1.021a1.5,1.5,0,0,1-.964,1.573c-.146.066-.252.383-.253.585-.016,3.649,0,7.3-.016,10.947a5.6,5.6,0,0,1-4.514,5.617,6.607,6.607,0,0,1-1.295.118q-2.553.019-5.105,0a5.627,5.627,0,0,1-5.8-5.81q-.012-5.416,0-10.834a.679.679,0,0,0-.42-.739,1.45,1.45,0,0,1-.727-.861,7.776,7.776,0,0,1-.039-2.029c.011-.135.417-.338.642-.34,2.25-.026,4.5-.016,6.75-.017Zm7.532,3.459H640.045v.692q0,5.3,0,10.6a4.862,4.862,0,0,0,5.015,5.065q2.523.023,5.045,0a4.861,4.861,0,0,0,5.016-5.065q.006-5.3,0-10.6Zm-16.266-2.593c-.017.163-.04.291-.043.42-.035,1.22.058,1.313,1.293,1.313h15.127c.17,0,.38.061.5-.016.229-.146.516-.34.582-.57a4.428,4.428,0,0,0,.025-1.147Z" fill="#ff7b80"/>
      <path id="Path_210" data-name="Path 210" d="M647.526,6960.644h-9.754c-.72,0-.853-.166-.733-.892a2.988,2.988,0,0,1,3.038-2.521c.926-.017,1.853-.014,2.779,0a.493.493,0,0,0,.57-.384,2.294,2.294,0,0,1,2.289-1.617q1.872-.023,3.743,0a2.285,2.285,0,0,1,2.283,1.623.491.491,0,0,0,.574.378c.945-.013,1.89-.022,2.835,0a2.973,2.973,0,0,1,2.978,2.522c.122.723-.011.888-.735.888Q652.46,6960.646,647.526,6960.644Zm9.763-.853a4.478,4.478,0,0,0-.262-.652,2.3,2.3,0,0,0-2.158-1.1c-4.876.008-9.752,0-14.628.008a3.3,3.3,0,0,0-.839.1,1.937,1.937,0,0,0-1.445,1.639ZM651,6957.2a1.549,1.549,0,0,0-1.436-1.141c-1.321-.035-2.644-.032-3.965,0a1.356,1.356,0,0,0-1.345,1.141Z" fill="#ff7b80"/>
      <path id="Path_211" data-name="Path 211" d="M647.993,6973.528q0,2.041,0,4.079c0,.307.02.665-.416.658s-.4-.372-.4-.673q0-4.022,0-8.045c0-.113-.032-.255.022-.333.1-.151.264-.37.394-.366a.547.547,0,0,1,.376.376,14.415,14.415,0,0,1,.025,1.471Q647.995,6972.113,647.993,6973.528Z" fill="#ff7b80"/>
      <path id="Path_212" data-name="Path 212" d="M650.386,6973.54q0-2.04,0-4.082c0-.292-.009-.619.386-.629.43-.011.433.331.433.646q0,4.081,0,8.164c0,.291,0,.617-.393.628-.441.012-.425-.332-.424-.645Q650.388,6975.582,650.386,6973.54Z" fill="#ff7b80"/>
      <path id="Path_213" data-name="Path 213" d="M643.964,6973.557q0-2.042,0-4.082c0-.316,0-.657.432-.647.4.01.386.336.386.629q0,4.083,0,8.165c0,.311.022.658-.423.645-.4-.011-.394-.336-.394-.627Z" fill="#ff7b80"/>
    </g>
  </g>
</svg>
